<svg xmlns="http://www.w3.org/2000/svg" xmlns:xlink="http://www.w3.org/1999/xlink" width="2500" zoomAndPan="magnify" viewBox="0 0 1874.88 2250.000011" height="3000" preserveAspectRatio="xMidYMid meet" version="1.0"><defs><g/><clipPath id="648e0e19a0"><path d="M 0.355469 0 L 1874.402344 0 L 1874.402344 2249 L 0.355469 2249 Z M 0.355469 0 " clip-rule="nonzero"/></clipPath><clipPath id="fc79528e7b"><path d="M 177 100.492188 L 1698 100.492188 L 1698 2148.582031 L 177 2148.582031 Z M 177 100.492188 " clip-rule="nonzero"/></clipPath><clipPath id="b9c1eb4e67"><rect x="0" width="1366" y="0" height="1139"/></clipPath></defs><g clip-path="url(#648e0e19a0)"><path fill="#ffffff" d="M 0.355469 0 L 1874.523438 0 L 1874.523438 2249 L 0.355469 2249 Z M 0.355469 0 " fill-opacity="1" fill-rule="nonzero"/><path fill="#081f1c" d="M 0.355469 0 L 1874.523438 0 L 1874.523438 2249 L 0.355469 2249 Z M 0.355469 0 " fill-opacity="1" fill-rule="nonzero"/></g><g clip-path="url(#fc79528e7b)"><path fill="#093923" d="M 938.710938 100.492188 L 936.160156 100.492188 C 517.554688 100.492188 177 441.050781 177 859.652344 L 177 1389.480469 C 177 1808.082031 517.554688 2148.640625 936.160156 2148.640625 L 938.710938 2148.640625 C 1357.3125 2148.640625 1697.871094 1808.082031 1697.871094 1389.480469 L 1697.871094 859.652344 C 1697.871094 441.050781 1357.3125 100.492188 938.710938 100.492188 Z M 1686.039062 1389.480469 C 1686.039062 1801.554688 1350.789062 2136.804688 938.710938 2136.804688 L 936.160156 2136.804688 C 524.082031 2136.804688 188.832031 1801.554688 188.832031 1389.480469 L 188.832031 859.652344 C 188.832031 447.574219 524.082031 112.324219 936.160156 112.324219 L 938.710938 112.324219 C 1350.789062 112.324219 1686.039062 447.574219 1686.039062 859.652344 Z M 938.710938 146.945312 L 936.160156 146.945312 C 543.171875 146.945312 223.453125 466.664062 223.453125 859.65625 L 223.453125 1389.480469 C 223.453125 1782.46875 543.171875 2102.1875 936.160156 2102.1875 L 938.710938 2102.1875 C 1331.699219 2102.1875 1651.417969 1782.46875 1651.417969 1389.480469 L 1651.417969 859.65625 C 1651.417969 466.664062 1331.699219 146.945312 938.710938 146.945312 Z M 1644.84375 1389.480469 C 1644.84375 1778.84375 1328.074219 2095.613281 938.710938 2095.613281 L 936.160156 2095.613281 C 546.796875 2095.613281 230.027344 1778.84375 230.027344 1389.480469 L 230.027344 859.65625 C 230.027344 470.289062 546.796875 153.519531 936.160156 153.519531 L 938.710938 153.519531 C 1328.074219 153.519531 1644.84375 470.289062 1644.84375 859.65625 Z M 1644.84375 1389.480469 " fill-opacity="1" fill-rule="nonzero"/></g><g transform="matrix(1, 0, 0, 1, 259, 557)"><g clip-path="url(#b9c1eb4e67)"><g fill="#f5e9db" fill-opacity="1"><g transform="translate(0.513064, 869.478733)"><g><path d="M 221.1875 -626.6875 C 243.238281 -626.6875 262.300781 -618.648438 278.375 -602.578125 C 294.445312 -586.515625 302.484375 -567.140625 302.484375 -544.453125 C 302.484375 -522.398438 295.234375 -504.128906 280.734375 -489.640625 C 322.328125 -486.484375 360.453125 -473.71875 395.109375 -451.34375 C 429.773438 -428.976562 457.503906 -399.992188 478.296875 -364.390625 C 499.085938 -328.785156 509.484375 -289.242188 509.484375 -245.765625 C 509.484375 -211.734375 503.023438 -179.910156 490.109375 -150.296875 C 477.191406 -120.679688 459.390625 -94.6875 436.703125 -72.3125 C 414.015625 -49.9375 387.703125 -32.289062 357.765625 -19.375 C 327.835938 -6.457031 296.175781 0 262.78125 0 L 13.234375 0 C 13.234375 0 14.804688 -2.046875 17.953125 -6.140625 C 21.109375 -10.234375 24.414062 -18.425781 27.875 -30.71875 C 31.34375 -43.007812 33.078125 -61.441406 33.078125 -86.015625 L 33.078125 -540.671875 C 33.078125 -565.242188 31.34375 -583.671875 27.875 -595.953125 C 24.414062 -608.242188 21.109375 -616.4375 17.953125 -620.53125 C 14.804688 -624.632812 13.234375 -626.6875 13.234375 -626.6875 Z M 262.78125 -488.6875 C 222.445312 -488.6875 185.421875 -479.707031 151.703125 -461.75 C 117.992188 -443.789062 90.113281 -420.003906 68.0625 -390.390625 L 68.0625 -3.78125 L 229.703125 -3.78125 C 274.441406 -3.78125 315.398438 -14.648438 352.578125 -36.390625 C 389.753906 -58.128906 419.367188 -87.273438 441.421875 -123.828125 C 463.484375 -160.378906 474.515625 -201.023438 474.515625 -245.765625 C 474.515625 -290.503906 466.164062 -331.304688 449.46875 -368.171875 C 432.769531 -405.035156 408.664062 -434.335938 377.15625 -456.078125 C 345.644531 -477.816406 307.519531 -488.6875 262.78125 -488.6875 Z M 190 -622.90625 L 68.0625 -622.90625 L 68.0625 -395.109375 C 88.851562 -421.578125 114.53125 -443.316406 145.09375 -460.328125 C 175.65625 -477.347656 209.210938 -487.117188 245.765625 -489.640625 C 252.066406 -496.566406 257.265625 -504.753906 261.359375 -514.203125 C 265.453125 -523.648438 267.5 -533.734375 267.5 -544.453125 C 267.5 -566.503906 259.78125 -585.09375 244.34375 -600.21875 C 228.90625 -615.34375 210.789062 -622.90625 190 -622.90625 Z M 190 -622.90625 "/></g></g></g><g fill="#f5e9db" fill-opacity="1"><g transform="translate(406.970036, 869.478733)"><g><path d="M 500.03125 -626.6875 L 531.21875 -577.53125 L 529.328125 -575.640625 C 514.210938 -590.128906 497.046875 -601.628906 477.828125 -610.140625 C 458.609375 -618.648438 437.65625 -622.90625 414.96875 -622.90625 L 293.03125 -622.90625 L 293.03125 -86.015625 C 293.03125 -62.703125 294.445312 -44.742188 297.28125 -32.140625 C 300.113281 -19.535156 302.789062 -11.023438 305.3125 -6.609375 C 307.832031 -2.203125 309.09375 0 309.09375 0 L 239.140625 0 C 239.140625 0 240.710938 -2.203125 243.859375 -6.609375 C 247.015625 -11.023438 250.164062 -19.535156 253.3125 -32.140625 C 256.46875 -44.742188 258.046875 -62.703125 258.046875 -86.015625 L 258.046875 -622.90625 L 131.390625 -622.90625 C 108.078125 -622.90625 86.648438 -618.648438 67.109375 -610.140625 C 47.578125 -601.628906 30.25 -590.128906 15.125 -575.640625 L 13.234375 -577.53125 L 44.421875 -626.6875 Z M 500.03125 -626.6875 "/></g></g></g><g fill="#f5e9db" fill-opacity="1"><g transform="translate(951.433681, 869.478733)"><g><path d="M 67.109375 -540.671875 L 67.109375 -90.75 C 67.109375 -66.164062 68.679688 -47.570312 71.828125 -34.96875 C 74.984375 -22.363281 77.976562 -13.851562 80.8125 -9.4375 C 83.65625 -5.03125 85.078125 -2.828125 85.078125 -2.828125 L 283.578125 -2.828125 C 328.953125 -2.828125 367.390625 -19.210938 398.890625 -51.984375 L 399.84375 -51.046875 L 367.703125 0 L 13.234375 0 C 13.234375 0 14.804688 -2.203125 17.953125 -6.609375 C 21.109375 -11.023438 24.257812 -19.535156 27.40625 -32.140625 C 30.5625 -44.742188 32.140625 -62.703125 32.140625 -86.015625 L 32.140625 -540.671875 C 32.140625 -574.066406 29.457031 -596.4375 24.09375 -607.78125 C 18.738281 -619.125 15.117188 -625.425781 13.234375 -626.6875 L 84.125 -626.6875 C 84.125 -626.6875 82.707031 -624.476562 79.875 -620.0625 C 77.039062 -615.65625 74.203125 -607.304688 71.359375 -595.015625 C 68.523438 -582.734375 67.109375 -564.617188 67.109375 -540.671875 Z M 67.109375 -540.671875 "/></g></g></g></g></g><g fill="#f5e9db" fill-opacity="1"><g transform="translate(418.777897, 1663.026572)"><g><path d="M 4.09375 0 L 4.09375 -52.28125 L 18.390625 -52.28125 C 23.054688 -52.28125 26.785156 -51.144531 29.578125 -48.875 C 32.378906 -46.613281 33.78125 -43.648438 33.78125 -39.984375 C 33.78125 -36.921875 32.8125 -34.351562 30.875 -32.28125 C 28.945312 -30.21875 26.351562 -28.820312 23.09375 -28.09375 C 26.957031 -27.425781 29.988281 -25.859375 32.1875 -23.390625 C 34.382812 -20.921875 35.484375 -17.890625 35.484375 -14.296875 C 35.484375 -10.023438 34.015625 -6.570312 31.078125 -3.9375 C 28.148438 -1.3125 24.222656 0 19.296875 0 Z M 10.390625 -28.59375 L 17.09375 -28.59375 C 18.5625 -28.59375 20.007812 -28.988281 21.4375 -29.78125 C 22.875 -30.582031 24.070312 -31.816406 25.03125 -33.484375 C 26 -35.148438 26.484375 -37.316406 26.484375 -39.984375 C 26.484375 -44.316406 25.535156 -47.28125 23.640625 -48.875 C 21.742188 -50.476562 19.5625 -51.28125 17.09375 -51.28125 L 10.390625 -51.28125 Z M 10.390625 -1 L 18.390625 -1 C 19.859375 -1 21.34375 -1.394531 22.84375 -2.1875 C 24.34375 -2.988281 25.609375 -4.359375 26.640625 -6.296875 C 27.671875 -8.234375 28.1875 -10.898438 28.1875 -14.296875 C 28.1875 -17.691406 27.671875 -20.335938 26.640625 -22.234375 C 25.609375 -24.140625 24.34375 -25.488281 22.84375 -26.28125 C 21.34375 -27.082031 19.859375 -27.484375 18.390625 -27.484375 L 10.390625 -27.484375 Z M 10.390625 -1 "/></g></g></g><g fill="#f5e9db" fill-opacity="1"><g transform="translate(481.748374, 1663.026572)"><g><path d="M 4.09375 0 L 4.09375 -52.28125 L 32.984375 -52.28125 L 32.984375 -51.28125 L 10.390625 -51.28125 L 10.390625 -28.484375 L 24.78125 -28.484375 L 24.78125 -27.390625 L 10.390625 -27.390625 L 10.390625 -1 L 32.984375 -1 L 32.984375 0 Z M 4.09375 0 "/></g></g></g><g fill="#f5e9db" fill-opacity="1"><g transform="translate(541.820252, 1663.026572)"><g><path d="M 20.09375 0.09375 L 20.09375 -51.28125 L 1 -51.28125 L 1 -52.28125 L 45.484375 -52.28125 L 45.484375 -51.28125 L 26.390625 -51.28125 L 26.390625 0.09375 Z M 20.09375 0.09375 "/></g></g></g><g fill="#f5e9db" fill-opacity="1"><g transform="translate(613.286641, 1663.026572)"><g><path d="M 22.390625 1.40625 L 2 -52.28125 L 8.796875 -52.28125 L 25.78125 -7.390625 L 36.578125 -35.890625 L 30.390625 -52.28125 L 37.1875 -52.28125 L 54.171875 -7.390625 L 71.265625 -52.28125 L 72.265625 -52.28125 L 54.671875 -6.09375 L 51.875 1.40625 L 50.78125 1.40625 L 37.078125 -34.578125 L 26.28125 -6.09375 L 23.484375 1.40625 Z M 22.390625 1.40625 "/></g></g></g><g fill="#f5e9db" fill-opacity="1"><g transform="translate(712.539567, 1663.026572)"><g><path d="M 4.09375 0 L 4.09375 -52.28125 L 32.984375 -52.28125 L 32.984375 -51.28125 L 10.390625 -51.28125 L 10.390625 -28.484375 L 24.78125 -28.484375 L 24.78125 -27.390625 L 10.390625 -27.390625 L 10.390625 -1 L 32.984375 -1 L 32.984375 0 Z M 4.09375 0 "/></g></g></g><g fill="#f5e9db" fill-opacity="1"><g transform="translate(772.611469, 1663.026572)"><g><path d="M 4.09375 0 L 4.09375 -52.28125 L 32.984375 -52.28125 L 32.984375 -51.28125 L 10.390625 -51.28125 L 10.390625 -28.484375 L 24.78125 -28.484375 L 24.78125 -27.390625 L 10.390625 -27.390625 L 10.390625 -1 L 32.984375 -1 L 32.984375 0 Z M 4.09375 0 "/></g></g></g><g fill="#f5e9db" fill-opacity="1"><g transform="translate(832.683325, 1663.026572)"><g><path d="M 4.09375 0 L 4.09375 -52.28125 L 10.5 -52.28125 L 35.984375 -11.296875 L 35.984375 -52.28125 L 37.078125 -52.28125 L 37.078125 0 L 35.6875 0 L 5.203125 -48.671875 L 5.203125 0 Z M 4.09375 0 "/></g></g></g><g fill="#f5e9db" fill-opacity="1"><g transform="translate(898.852263, 1663.026572)"><g/></g></g><g fill="#f5e9db" fill-opacity="1"><g transform="translate(944.231263, 1663.026572)"><g><path d="M 20.09375 0.09375 L 20.09375 -51.28125 L 1 -51.28125 L 1 -52.28125 L 45.484375 -52.28125 L 45.484375 -51.28125 L 26.390625 -51.28125 L 26.390625 0.09375 Z M 20.09375 0.09375 "/></g></g></g><g fill="#f5e9db" fill-opacity="1"><g transform="translate(1015.697606, 1663.026572)"><g><path d="M 4.09375 0 L 4.09375 -52.28125 L 10.390625 -52.28125 L 10.390625 -26.984375 L 34.78125 -26.984375 L 34.78125 -52.28125 L 41.078125 -52.28125 L 41.078125 0 L 34.78125 0 L 34.78125 -25.984375 L 10.390625 -25.984375 L 10.390625 0 Z M 4.09375 0 "/></g></g></g><g fill="#f5e9db" fill-opacity="1"><g transform="translate(1085.864614, 1663.026572)"><g><path d="M 4.09375 0 L 4.09375 -52.28125 L 32.984375 -52.28125 L 32.984375 -51.28125 L 10.390625 -51.28125 L 10.390625 -28.484375 L 24.78125 -28.484375 L 24.78125 -27.390625 L 10.390625 -27.390625 L 10.390625 -1 L 32.984375 -1 L 32.984375 0 Z M 4.09375 0 "/></g></g></g><g fill="#f5e9db" fill-opacity="1"><g transform="translate(1145.93647, 1663.026572)"><g/></g></g><g fill="#f5e9db" fill-opacity="1"><g transform="translate(1191.31547, 1663.026572)"><g><path d="M 4.09375 0 L 4.09375 -52.28125 L 10.390625 -52.28125 L 10.390625 -1 L 32.984375 -1 L 32.984375 0 Z M 4.09375 0 "/></g></g></g><g fill="#f5e9db" fill-opacity="1"><g transform="translate(1250.287854, 1663.026572)"><g><path d="M 4.09375 0 L 4.09375 -52.28125 L 10.390625 -52.28125 L 10.390625 0 Z M 4.09375 0 "/></g></g></g><g fill="#f5e9db" fill-opacity="1"><g transform="translate(1289.769726, 1663.026572)"><g><path d="M 4.09375 0 L 4.09375 -52.28125 L 10.5 -52.28125 L 35.984375 -11.296875 L 35.984375 -52.28125 L 37.078125 -52.28125 L 37.078125 0 L 35.6875 0 L 5.203125 -48.671875 L 5.203125 0 Z M 4.09375 0 "/></g></g></g><g fill="#f5e9db" fill-opacity="1"><g transform="translate(1355.938618, 1663.026572)"><g><path d="M 4.09375 0 L 4.09375 -52.28125 L 32.984375 -52.28125 L 32.984375 -51.28125 L 10.390625 -51.28125 L 10.390625 -28.484375 L 24.78125 -28.484375 L 24.78125 -27.390625 L 10.390625 -27.390625 L 10.390625 -1 L 32.984375 -1 L 32.984375 0 Z M 4.09375 0 "/></g></g></g><g fill="#f5e9db" fill-opacity="1"><g transform="translate(1415.010933, 1663.026572)"><g><path d="M 21.296875 0.796875 C 17.960938 0.796875 14.945312 0.0664062 12.25 -1.390625 C 9.550781 -2.859375 7.382812 -4.757812 5.75 -7.09375 C 4.113281 -9.425781 3.226562 -11.894531 3.09375 -14.5 C 3.03125 -16.289062 3.378906 -17.6875 4.140625 -18.6875 C 4.910156 -19.6875 5.863281 -20.1875 7 -20.1875 C 8.195312 -20.1875 9.09375 -19.800781 9.6875 -19.03125 C 10.289062 -18.269531 10.59375 -17.488281 10.59375 -16.6875 C 10.59375 -15.488281 10.539062 -14.503906 10.4375 -13.734375 C 10.34375 -12.972656 10.242188 -12.222656 10.140625 -11.484375 C 10.046875 -10.753906 10 -9.722656 10 -8.390625 C 10 -7.265625 10.5 -6.066406 11.5 -4.796875 C 12.5 -3.535156 13.863281 -2.453125 15.59375 -1.546875 C 17.320312 -0.648438 19.222656 -0.203125 21.296875 -0.203125 C 23.085938 -0.203125 24.914062 -0.46875 26.78125 -1 C 28.65625 -1.53125 30.222656 -2.394531 31.484375 -3.59375 C 32.753906 -4.789062 33.390625 -6.390625 33.390625 -8.390625 C 33.390625 -11.328125 32.722656 -13.84375 31.390625 -15.9375 C 30.054688 -18.039062 28.320312 -19.859375 26.1875 -21.390625 C 24.050781 -22.921875 21.785156 -24.316406 19.390625 -25.578125 C 16.992188 -26.847656 14.726562 -28.132812 12.59375 -29.4375 C 10.457031 -30.738281 8.722656 -32.171875 7.390625 -33.734375 C 6.054688 -35.296875 5.390625 -37.175781 5.390625 -39.375 C 5.390625 -41.644531 5.957031 -43.828125 7.09375 -45.921875 C 8.226562 -48.023438 9.960938 -49.742188 12.296875 -51.078125 C 14.628906 -52.410156 17.5625 -53.078125 21.09375 -53.078125 C 23.757812 -53.078125 26.253906 -52.578125 28.578125 -51.578125 C 30.910156 -50.578125 32.796875 -49.273438 34.234375 -47.671875 C 35.671875 -46.078125 36.390625 -44.414062 36.390625 -42.6875 C 36.390625 -41.28125 36.035156 -40.257812 35.328125 -39.625 C 34.628906 -39 33.78125 -38.6875 32.78125 -38.6875 C 31.78125 -38.6875 30.914062 -39.066406 30.1875 -39.828125 C 29.457031 -40.597656 29.09375 -41.816406 29.09375 -43.484375 C 29.09375 -45.816406 28.488281 -47.832031 27.28125 -49.53125 C 26.082031 -51.226562 23.953125 -52.078125 20.890625 -52.078125 C 17.492188 -52.078125 14.726562 -51.175781 12.59375 -49.375 C 10.457031 -47.570312 9.390625 -45.609375 9.390625 -43.484375 C 9.390625 -41.679688 10.070312 -40.046875 11.4375 -38.578125 C 12.8125 -37.117188 14.578125 -35.722656 16.734375 -34.390625 C 18.898438 -33.054688 21.21875 -31.738281 23.6875 -30.4375 C 26.15625 -29.132812 28.472656 -27.734375 30.640625 -26.234375 C 32.804688 -24.734375 34.570312 -23.050781 35.9375 -21.1875 C 37.300781 -19.320312 37.984375 -17.191406 37.984375 -14.796875 C 37.984375 -11.722656 37.398438 -9.171875 36.234375 -7.140625 C 35.066406 -5.109375 33.597656 -3.507812 31.828125 -2.34375 C 30.066406 -1.175781 28.234375 -0.363281 26.328125 0.09375 C 24.429688 0.5625 22.753906 0.796875 21.296875 0.796875 Z M 21.296875 0.796875 "/></g></g></g></svg>