<svg xmlns="http://www.w3.org/2000/svg" xmlns:xlink="http://www.w3.org/1999/xlink" width="2500" zoomAndPan="magnify" viewBox="0 0 1500 1500" height="3000" preserveAspectRatio="xMidYMid meet" version="1.0"><defs><g/><clipPath id="b7b1a4a6a0"><path d="M 964 243 L 1241 243 L 1241 871 L 964 871 Z M 964 243 " clip-rule="nonzero"/></clipPath><clipPath id="9d1e2c0333"><rect x="0" width="1241" y="0" height="943"/></clipPath><clipPath id="b72812be58"><path d="M 176.410156 100.535156 L 1500 100.535156 L 1500 1500 L 176.410156 1500 Z M 176.410156 100.535156 " clip-rule="nonzero"/></clipPath></defs><rect x="-150" width="1800" fill="#ffffff" y="-150" height="1800" fill-opacity="1"/><rect x="-150" width="1800" fill="#081f1c" y="-150" height="1800" fill-opacity="1"/><g transform="matrix(1, 0, 0, 1, 259, 557)"><g clip-path="url(#9d1e2c0333)"><g fill="#f5e9db" fill-opacity="1"><g transform="translate(0.271767, 870.112717)"><g><path d="M 221.28125 -626.984375 C 243.351562 -626.984375 262.425781 -618.941406 278.5 -602.859375 C 294.570312 -586.785156 302.609375 -567.398438 302.609375 -544.703125 C 302.609375 -522.640625 295.359375 -504.359375 280.859375 -489.859375 C 322.472656 -486.703125 360.613281 -473.929688 395.28125 -451.546875 C 429.957031 -429.171875 457.695312 -400.171875 478.5 -364.546875 C 499.3125 -328.929688 509.71875 -289.375 509.71875 -245.875 C 509.71875 -211.832031 503.253906 -179.992188 490.328125 -150.359375 C 477.398438 -120.734375 459.585938 -94.726562 436.890625 -72.34375 C 414.203125 -49.957031 387.882812 -32.300781 357.9375 -19.375 C 327.988281 -6.457031 296.304688 0 262.890625 0 L 13.234375 0 C 13.234375 0 14.8125 -2.046875 17.96875 -6.140625 C 21.125 -10.242188 24.429688 -18.441406 27.890625 -30.734375 C 31.359375 -43.023438 33.09375 -61.46875 33.09375 -86.0625 L 33.09375 -540.921875 C 33.09375 -565.515625 31.359375 -583.957031 27.890625 -596.25 C 24.429688 -608.539062 21.125 -616.734375 17.96875 -620.828125 C 14.8125 -624.929688 13.234375 -626.984375 13.234375 -626.984375 Z M 262.890625 -488.90625 C 222.546875 -488.90625 185.507812 -479.921875 151.78125 -461.953125 C 118.050781 -443.992188 90.15625 -420.195312 68.09375 -390.5625 L 68.09375 -3.78125 L 229.796875 -3.78125 C 274.554688 -3.78125 315.535156 -14.65625 352.734375 -36.40625 C 389.929688 -58.15625 419.5625 -87.3125 441.625 -123.875 C 463.695312 -160.445312 474.734375 -201.113281 474.734375 -245.875 C 474.734375 -290.632812 466.378906 -331.453125 449.671875 -368.328125 C 432.960938 -405.210938 408.847656 -434.53125 377.328125 -456.28125 C 345.804688 -478.03125 307.660156 -488.90625 262.890625 -488.90625 Z M 190.078125 -623.203125 L 68.09375 -623.203125 L 68.09375 -395.296875 C 88.894531 -421.773438 114.582031 -443.523438 145.15625 -460.546875 C 175.738281 -477.566406 209.3125 -487.335938 245.875 -489.859375 C 252.175781 -496.796875 257.375 -504.988281 261.46875 -514.4375 C 265.570312 -523.894531 267.625 -533.984375 267.625 -544.703125 C 267.625 -566.773438 259.898438 -585.375 244.453125 -600.5 C 229.003906 -615.632812 210.878906 -623.203125 190.078125 -623.203125 Z M 190.078125 -623.203125 "/></g></g></g><g fill="#f5e9db" fill-opacity="1"><g transform="translate(406.909384, 870.112717)"><g><path d="M 500.265625 -626.984375 L 531.46875 -577.8125 L 529.578125 -575.921875 C 514.441406 -590.421875 497.257812 -601.925781 478.03125 -610.4375 C 458.800781 -618.945312 437.84375 -623.203125 415.15625 -623.203125 L 293.15625 -623.203125 L 293.15625 -86.0625 C 293.15625 -62.726562 294.570312 -44.753906 297.40625 -32.140625 C 300.25 -19.535156 302.929688 -11.023438 305.453125 -6.609375 C 307.972656 -2.203125 309.234375 0 309.234375 0 L 239.25 0 C 239.25 0 240.828125 -2.203125 243.984375 -6.609375 C 247.140625 -11.023438 250.289062 -19.535156 253.4375 -32.140625 C 256.59375 -44.753906 258.171875 -62.726562 258.171875 -86.0625 L 258.171875 -623.203125 L 131.453125 -623.203125 C 108.117188 -623.203125 86.679688 -618.945312 67.140625 -610.4375 C 47.597656 -601.925781 30.257812 -590.421875 15.125 -575.921875 L 13.234375 -577.8125 L 44.453125 -626.984375 Z M 500.265625 -626.984375 "/></g></g></g><g clip-path="url(#b7b1a4a6a0)"><g fill="#f5e9db" fill-opacity="1"><g transform="translate(951.615011, 870.112717)"><g><path d="M 67.140625 -540.921875 L 67.140625 -90.78125 C 67.140625 -66.195312 68.710938 -47.597656 71.859375 -34.984375 C 75.015625 -22.378906 78.007812 -13.867188 80.84375 -9.453125 C 83.6875 -5.046875 85.109375 -2.84375 85.109375 -2.84375 L 283.703125 -2.84375 C 329.097656 -2.84375 367.554688 -19.234375 399.078125 -52.015625 L 400.015625 -51.0625 L 367.859375 0 L 13.234375 0 C 13.234375 0 14.8125 -2.203125 17.96875 -6.609375 C 21.125 -11.023438 24.273438 -19.535156 27.421875 -32.140625 C 30.578125 -44.753906 32.15625 -62.726562 32.15625 -86.0625 L 32.15625 -540.921875 C 32.15625 -574.335938 29.472656 -596.71875 24.109375 -608.0625 C 18.753906 -619.414062 15.128906 -625.722656 13.234375 -626.984375 L 84.171875 -626.984375 C 84.171875 -626.984375 82.75 -624.773438 79.90625 -620.359375 C 77.070312 -615.941406 74.234375 -607.585938 71.390625 -595.296875 C 68.554688 -583.003906 67.140625 -564.878906 67.140625 -540.921875 Z M 67.140625 -540.921875 "/></g></g></g></g></g></g><g clip-path="url(#b72812be58)"><path fill="#093923" d="M 938.769531 100.535156 L 936.21875 100.535156 C 517.429688 100.535156 176.71875 441.246094 176.71875 860.035156 L 176.71875 1390.097656 C 176.71875 1808.882812 517.429688 2149.59375 936.21875 2149.59375 L 938.769531 2149.59375 C 1357.558594 2149.59375 1698.269531 1808.882812 1698.269531 1390.097656 L 1698.269531 860.035156 C 1698.269531 441.246094 1357.558594 100.535156 938.769531 100.535156 Z M 1686.429688 1390.097656 C 1686.429688 1802.355469 1351.03125 2137.757812 938.769531 2137.757812 L 936.21875 2137.757812 C 523.957031 2137.757812 188.558594 1802.355469 188.558594 1390.097656 L 188.558594 860.035156 C 188.558594 447.773438 523.957031 112.375 936.21875 112.375 L 938.769531 112.375 C 1351.03125 112.375 1686.429688 447.773438 1686.429688 860.035156 Z M 938.769531 147.011719 L 936.21875 147.011719 C 543.058594 147.011719 223.195312 466.871094 223.195312 860.035156 L 223.195312 1390.097656 C 223.195312 1783.257812 543.058594 2103.121094 936.21875 2103.121094 L 938.769531 2103.121094 C 1331.933594 2103.121094 1651.796875 1783.257812 1651.796875 1390.097656 L 1651.796875 860.035156 C 1651.796875 466.871094 1331.933594 147.011719 938.769531 147.011719 Z M 1645.21875 1390.097656 C 1645.21875 1779.632812 1328.308594 2096.546875 938.769531 2096.546875 L 936.21875 2096.546875 C 546.683594 2096.546875 229.769531 1779.632812 229.769531 1390.097656 L 229.769531 860.035156 C 229.769531 470.5 546.683594 153.585938 936.21875 153.585938 L 938.769531 153.585938 C 1328.308594 153.585938 1645.21875 470.5 1645.21875 860.035156 Z M 1645.21875 1390.097656 " fill-opacity="1" fill-rule="nonzero"/></g></svg>